<?xml version="1.0" standalone="no"?><!DOCTYPE svg PUBLIC "-//W3C//DTD SVG 1.1//EN" "http://www.w3.org/Graphics/SVG/1.1/DTD/svg11.dtd"><svg t="1766974155960" class="icon" viewBox="0 0 1024 1024" version="1.1" xmlns="http://www.w3.org/2000/svg" p-id="5665" xmlns:xlink="http://www.w3.org/1999/xlink" width="200" height="200"><path d="M695.9104 659.2512c-16.7936-8.3968-35.328-18.3296-42.496-24.6784a2401.792 2401.792 0 0 0-63.8976-68.3008c-14.336-14.7456-87.04-88.064-104.3456-106.1888-35.328-36.9664-54.8864-60.6208-62.1568-76.5952-23.7568-41.3696-39.936-53.0432-79.5648-54.272a46.7968 46.7968 0 0 0-37.6832 15.7696 61.952 61.952 0 0 0-11.4688 16.1792l-8.192 8.9088a912.5888 912.5888 0 0 0-9.728 5.12c14.336 6.4512 21.6064 12.3904 24.576 24.8832a68.608 68.608 0 0 1 1.2288 7.9872l1.4336 16.5888 1.4336 22.528 0.3072 4.3008c4.096 54.8864 7.2704 75.264 22.1184 109.568 17.92 41.472 47.104 73.216 90.9312 93.184 67.9936 29.7984 137.728 28.672 203.1616 8.6016 15.7696-4.8128 41.7792-15.4624 42.496-15.5648 9.216-1.536 48.4352 25.9072 48.128 25.6 13.824 8.3968 26.7264 14.5408 38.4 17.92a68.096 68.096 0 0 0 15.0528 2.7648 5133.6192 5133.6192 0 0 0-69.632-34.304zM255.488 387.072a152.576 152.576 0 0 0-3.4816 2.1504l4.9152-3.072-1.4336 1.024z m23.8592-67.2768a82.6368 82.6368 0 0 1 65.536-27.0336c53.248 1.6384 80.1792 20.992 110.592 74.1376 5.632 12.288 23.9616 34.304 56.1152 67.9936 17.1008 17.8176 89.6 91.0336 104.0384 105.8816a2437.2224 2437.2224 0 0 1 63.2832 67.7888c1.9456 1.6384 21.9136 12.288 33.1776 17.92 39.2192 18.8416 90.624 44.4416 96.256 48.8448a29.184 29.184 0 0 1 8.192 35.2256c-7.0656 14.336-23.8592 20.0704-49.664 19.7632a100.9664 100.9664 0 0 1-26.4192-4.3008 200.3968 200.3968 0 0 1-47.2064-21.7088 420.4544 420.4544 0 0 1-25.6-16.7936l-2.2528-1.536c-7.168 3.072-20.7872 8.192-33.0752 11.8784-73.216 22.528-151.552 23.7568-228.7616-10.24a210.7392 210.7392 0 0 1-109.568-111.9232c-17.1008-39.424-20.6848-62.2592-25.088-121.344l-0.3072-4.3008a1309.2864 1309.2864 0 0 0-2.7648-37.888 115.712 115.712 0 0 0-0.512-3.584c0.4096 2.4576-2.8672 0.4096-9.0112-2.048a526.6432 526.6432 0 0 1-13.5168-5.3248l-2.048-0.8192c-10.24-4.1984-13.5168-5.7344-17.1008-9.4208l-4.1984-6.8608c3.7888-20.992 3.7888-20.992 7.2704-21.8112 2.7648-2.048 2.7648-2.048 5.632-3.8912 3.4816-2.2528 8.192-5.0176 13.824-8.192l2.048-1.1264c5.5296-3.072 11.0592-6.144 15.6672-8.4992 3.3792-6.144 8.4992-13.5168 15.36-20.7872zM512 1024A512 512 0 1 1 512 0a512 512 0 0 1 0 1024z m0-36.5568A475.4432 475.4432 0 1 0 512 36.5568a475.4432 475.4432 0 0 0 0 950.8864zM371.712 479.1296a18.3296 18.3296 0 0 1 35.0208 10.752 75.0592 75.0592 0 0 0 0 40.3456c7.2704 24.2688 29.9008 38.7072 78.848 37.9904a18.3296 18.3296 0 1 1 0.512 36.5568c-64.3072 1.024-101.9904-23.04-114.3808-64a110.1824 110.1824 0 0 1 0-61.6448z" fill="#1296db" p-id="5666"></path></svg>