<svg width="200" height="200" viewBox="-100 -100 200 200" style="background: #f0f0f0;">
  <path 
    d="
      M 89.94517443171861 3.1409547032250873
      A 90 90 0 0 1 -79.4652833573034 42.2524406507302
      L -66.22106946441951 35.21036720894183
      A 75 75 0 0 0 74.95431202643218 2.617462252687573
      L 89.94517443171861 3.1409547032250873
      Z" 
    fill="purple">
  </path>
      <path
      d="
        M -80.89146416692503 39.453403211016955
        A 90 90 0 0 1 6.27808263697127 -89.78076452338419
        L 5.231735530809392 -74.81730376948683
        A 75 75 0 0 0 -67.40955347243752 32.8778360091808
        L -80.89146416692503 39.453403211016955
        Z"
      fill="rgb(224,40,71)">
      </path>
      <path d="
        M 9.407561694088768 -89.50697058314461
        A 90 90 0 0 1 74.61338152995373 -50.32736131236726
        L 62.177817941628106 -41.93946776030605
        A 75 75 0 0 0 7.839634745073974 -74.58914215262051
        L 9.407561694088768 -89.50697058314461
        Z
      " fill="orange"></path><path d="
        M 76.32432865407829 -47.69273378098852
        A 90 90 0 0 1 86.0674280366732 -26.313453425046266
        L 71.72285669722767 -21.92787785420522
        A 75 75 0 0 0 63.603607211731905 -39.74394481749044
        L 76.32432865407829 -47.69273378098852
        Z
      " fill="yellow"></path><path d="
        M 86.93332436601615 -23.29371405922686
        A 90 90 0 0 1 90 -2.2043642384652358e-14
        L 75 -1.8369701987210297e-14
        A 75 75 0 0 0 72.44443697168012 -19.411428382689053
        L 86.93332436601615 -23.29371405922686
        Z
      " fill="lightblue"></path>
</svg>